<svg width="65" height="77" viewBox="0 0 65 77" fill="none" xmlns="http://www.w3.org/2000/svg">
<g clip-path="url(#clip0_5_83)">
<path d="M4.51005 34.62V42.355H62.7501V34.62H4.51005ZM9.38505 15.8984V23.3115H58V15.8984H9.38505ZM29.2751 8.815V69.85H37.5301V8.815H29.2751ZM27.9101 39.105C22.5801 47.49 12.31 55.94 2.30005 60.295C4.12005 61.92 6.72005 65.04 8.02005 66.99C18.29 61.66 28.43 52.235 34.67 41.9L27.9101 39.105ZM38.9601 39.17L32.4601 41.9C38.7001 52.17 48.6451 61.79 58.7201 67.12C60.0201 65.04 62.6201 61.855 64.4401 60.295C54.495 56.005 44.2251 47.555 38.9601 39.17Z" fill="white"/>
</g>
<g clip-path="url(#clip1_5_83)">
<path d="M2.81512 34.6207V42.3612H61.2501V34.6207H2.81512ZM5.87012 15.8979V23.3118H58.6501V15.8979H5.87012ZM27.8401 8.815V69.85H36.1601V8.815H27.8401ZM47.2101 23.18C45.9751 27.015 43.5701 32.085 41.5551 35.4L48.3151 37.61C50.3951 34.685 52.9951 30.07 55.4001 25.585L47.2101 23.18ZM10.2251 25.975C12.4351 29.68 14.6451 34.62 15.2951 37.74L22.7701 34.815C21.9251 31.63 19.5851 26.885 17.1801 23.375L10.2251 25.975ZM26.5401 40.275C21.2751 48.595 11.0051 56.85 0.995117 61.075C2.75012 62.635 5.28512 65.69 6.52012 67.575C16.6601 62.44 26.7351 53.08 32.8451 42.81L26.5401 40.275ZM37.6551 40.405L31.3501 42.94C37.4601 53.145 47.2751 62.635 57.4151 67.77C58.6501 65.755 61.1201 62.765 62.9401 61.205C52.9951 56.98 42.8551 48.66 37.6551 40.405Z" fill="white"/>
</g>
<defs>
<clipPath id="clip0_5_83">
<rect width="32.5" height="75" fill="white"/>
</clipPath>
<clipPath id="clip1_5_83">
<rect width="32.5" height="75" fill="white" transform="translate(32 1.065)"/>
</clipPath>
</defs>
</svg>
