<svg width="271" height="81" viewBox="0 0 271 81" fill="none" xmlns="http://www.w3.org/2000/svg">
<g clip-path="url(#clip0_6_85)">
<path d="M4.51005 38.62V46.355H62.7501V38.62H4.51005ZM9.38505 19.8984V27.3115H58V19.8984H9.38505ZM29.2751 12.815V73.85H37.5301V12.815H29.2751ZM27.9101 43.105C22.5801 51.49 12.31 59.94 2.30005 64.295C4.12005 65.92 6.72005 69.04 8.02005 70.99C18.29 65.66 28.43 56.235 34.67 45.9L27.9101 43.105ZM38.9601 43.17L32.4601 45.9C38.7001 56.17 48.6451 65.79 58.7201 71.12C60.0201 69.04 62.6201 65.855 64.4401 64.295C54.495 60.005 44.2251 51.555 38.9601 43.17Z" fill="white"/>
</g>
<g clip-path="url(#clip1_6_85)">
<path d="M2.81512 38.6207V46.3612H61.2501V38.6207H2.81512ZM5.87012 19.8979V27.3118H58.6501V19.8979H5.87012ZM27.8401 12.815V73.85H36.1601V12.815H27.8401ZM47.2101 27.18C45.9751 31.015 43.5701 36.085 41.5551 39.4L48.3151 41.61C50.3951 38.685 52.9951 34.07 55.4001 29.585L47.2101 27.18ZM10.2251 29.975C12.4351 33.68 14.6451 38.62 15.2951 41.74L22.7701 38.815C21.9251 35.63 19.5851 30.885 17.1801 27.375L10.2251 29.975ZM26.5401 44.275C21.2751 52.595 11.0051 60.85 0.995117 65.075C2.75012 66.635 5.28512 69.69 6.52012 71.575C16.6601 66.44 26.7351 57.08 32.8451 46.81L26.5401 44.275ZM37.6551 44.405L31.3501 46.94C37.4601 57.145 47.2751 66.635 57.4151 71.77C58.6501 69.755 61.1201 66.765 62.9401 65.205C52.9951 60.98 42.8551 52.66 37.6551 44.405Z" fill="white"/>
</g>
<path d="M82.2315 63V27.5455H94.3267V34.2855H94.696C95.4347 32.0696 96.6965 30.3153 98.4815 29.0227C100.267 27.7301 102.39 27.0838 104.852 27.0838C107.345 27.0838 109.492 27.7455 111.292 29.0689C113.093 30.3769 114.178 32.1158 114.547 34.2855H114.916C115.516 32.1158 116.794 30.3769 118.748 29.0689C120.702 27.7455 122.995 27.0838 125.626 27.0838C129.027 27.0838 131.782 28.1764 133.89 30.3615C136.013 32.5466 137.075 35.455 137.075 39.0866V63H124.334V42.3182C124.334 40.764 123.941 39.5483 123.157 38.6712C122.372 37.7786 121.318 37.3324 119.994 37.3324C118.686 37.3324 117.648 37.7786 116.878 38.6712C116.124 39.5483 115.747 40.764 115.747 42.3182V63H103.56V42.3182C103.56 40.764 103.167 39.5483 102.382 38.6712C101.598 37.7786 100.544 37.3324 99.2202 37.3324C98.343 37.3324 97.589 37.5324 96.9581 37.9325C96.3272 38.3326 95.8348 38.9097 95.4808 39.6637C95.1423 40.4023 94.973 41.2872 94.973 42.3182V63H82.2315ZM143.359 63V27.5455H156.101V63H143.359ZM149.73 23.8523C148.007 23.8523 146.529 23.2829 145.298 22.1442C144.067 21.0054 143.452 19.6359 143.452 18.0355C143.452 16.4351 144.067 15.0656 145.298 13.9268C146.529 12.7881 148.007 12.2188 149.73 12.2188C151.469 12.2188 152.946 12.7881 154.162 13.9268C155.393 15.0656 156.009 16.4351 156.009 18.0355C156.009 19.6359 155.393 21.0054 154.162 22.1442C152.946 23.2829 151.469 23.8523 149.73 23.8523ZM162.593 63V27.5455H174.965V34.2855H175.334C175.981 31.7926 177.004 29.9691 178.404 28.815C179.82 27.6609 181.474 27.0838 183.367 27.0838C183.921 27.0838 184.467 27.13 185.006 27.2223C185.56 27.2992 186.091 27.4147 186.599 27.5685V38.4403C185.968 38.2249 185.191 38.0633 184.267 37.9556C183.344 37.8479 182.551 37.794 181.89 37.794C180.643 37.794 179.52 38.0787 178.52 38.6481C177.535 39.2021 176.758 39.9869 176.188 41.0025C175.619 42.0027 175.334 43.1799 175.334 44.5341V63H162.593ZM199.005 63.554C196.743 63.554 194.743 63.1847 193.004 62.446C191.28 61.692 189.926 60.5533 188.941 59.0298C187.957 57.5064 187.464 55.5675 187.464 53.2131C187.464 51.2741 187.795 49.6199 188.457 48.2504C189.118 46.8654 190.042 45.7344 191.227 44.8572C192.411 43.9801 193.789 43.3107 195.358 42.8491C196.943 42.3874 198.651 42.0874 200.483 41.9489C202.468 41.795 204.06 41.6103 205.261 41.3949C206.476 41.1641 207.353 40.8486 207.892 40.4485C208.431 40.033 208.7 39.4867 208.7 38.8097V38.7173C208.7 37.794 208.346 37.0862 207.638 36.5938C206.93 36.1013 206.022 35.8551 204.914 35.8551C203.699 35.8551 202.706 36.1244 201.937 36.663C201.183 37.1862 200.729 37.9941 200.575 39.0866H188.849C189.003 36.9323 189.688 34.9472 190.903 33.1314C192.134 31.3002 193.927 29.8383 196.282 28.7457C198.636 27.6378 201.575 27.0838 205.099 27.0838C207.638 27.0838 209.916 27.3839 211.931 27.984C213.947 28.5688 215.663 29.392 217.079 30.4538C218.495 31.5002 219.572 32.7313 220.31 34.147C221.064 35.5473 221.441 37.0708 221.441 38.7173V63H209.531V58.0142H209.254C208.546 59.3376 207.684 60.4071 206.669 61.2227C205.668 62.0382 204.522 62.6307 203.229 63C201.952 63.3693 200.544 63.554 199.005 63.554ZM203.16 55.5213C204.13 55.5213 205.038 55.3213 205.884 54.9212C206.746 54.5211 207.446 53.944 207.984 53.19C208.523 52.436 208.792 51.5204 208.792 50.4432V47.4886C208.454 47.6271 208.092 47.7579 207.707 47.881C207.338 48.0041 206.938 48.1196 206.507 48.2273C206.092 48.335 205.645 48.435 205.168 48.5273C204.707 48.6197 204.222 48.7043 203.714 48.7812C202.729 48.9351 201.921 49.189 201.29 49.543C200.675 49.8815 200.213 50.3047 199.906 50.8125C199.613 51.3049 199.467 51.8589 199.467 52.4744C199.467 53.4593 199.813 54.2133 200.506 54.7365C201.198 55.2597 202.083 55.5213 203.16 55.5213ZM227.529 63V27.5455H240.271V63H227.529ZM233.9 23.8523C232.177 23.8523 230.699 23.2829 229.468 22.1442C228.237 21.0054 227.622 19.6359 227.622 18.0355C227.622 16.4351 228.237 15.0656 229.468 13.9268C230.699 12.7881 232.177 12.2188 233.9 12.2188C235.639 12.2188 237.116 12.7881 238.332 13.9268C239.563 15.0656 240.179 16.4351 240.179 18.0355C240.179 19.6359 239.563 21.0054 238.332 22.1442C237.116 23.2829 235.639 23.8523 233.9 23.8523Z" fill="white"/>
<defs>
<clipPath id="clip0_6_85">
<rect width="32.5" height="75" fill="white" transform="translate(0 4)"/>
</clipPath>
<clipPath id="clip1_6_85">
<rect width="32.5" height="75" fill="white" transform="translate(32 5.065)"/>
</clipPath>
</defs>
</svg>
